tick,note,velocity,channel,type
0,60,100,0,on
480,60,0,0,off
480,60,100,0,on
960,60,0,0,off
960,67,100,0,on
1440,67,0,0,off
1440,67,100,0,on
1920,67,0,0,off
1920,69,100,0,on
2400,69,0,0,off
2400,69,100,0,on
2880,69,0,0,off
2880,67,100,0,on
3360,67,0,0,off
3360,65,100,0,on
3840,65,0,0,off
3840,65,100,0,on
4320,65,0,0,off
4320,64,100,0,on
4800,64,0,0,off
4800,64,100,0,on
5280,64,0,0,off
5280,62,100,0,on
5760,62,0,0,off
5760,62,100,0,on
6240,62,0,0,off
6240,60,100,0,on
6720,60,0,0,off 